<?xml version="1.0" encoding="UTF-8"?>
<svg version="1.1" xmlns="http://www.w3.org/2000/svg" width="493" height="102">
<path d="M0 0 C162.69 0 325.38 0 493 0 C493 33.66 493 67.32 493 102 C330.31 102 167.62 102 0 102 C0 68.34 0 34.68 0 0 Z " fill="#FCFDFD" transform="translate(0,0)"/>
<path d="M0 0 C24.82857143 0 24.82857143 0 30.3125 5.1875 C32.49049717 8.81749528 32.82770833 11.91716951 32 16 C30.87337436 18.29695658 29.61362194 19.98297258 28 22 C28.804375 22.804375 29.60875 23.60875 30.4375 24.4375 C33.63512915 28.29105308 34.30156114 32.05971893 34 37 C32.37887306 41.77331822 30.15238752 44.21587561 26 47 C23.0456543 47.45410156 23.0456543 47.45410156 19.82421875 47.390625 C18.78096436 47.38063477 17.73770996 47.37064453 16.6628418 47.36035156 C14.69504761 47.30572754 14.69504761 47.30572754 12.6875 47.25 C6.4071875 47.12625 6.4071875 47.12625 0 47 C0 31.49 0 15.98 0 0 Z " fill="#07594C" transform="translate(284,27)"/>
<path d="M0 0 C1.98 0 3.96 0 6 0 C6 15.51 6 31.02 6 47 C4.35 47 2.7 47 1 47 C1 46.01 1 45.02 1 44 C-0.134375 44.66 -1.26875 45.32 -2.4375 46 C-7.01933599 48.24647338 -10.96291772 49.15835342 -16 48 C-20.18119093 45.87298301 -23.12891001 43.11608405 -26 39.4375 C-27.92264296 32.82841484 -28.30325496 25.80701069 -25.375 19.5 C-20.65051114 14.52685383 -17.31399113 11.25593743 -10.32421875 10.78125 C-6.2878789 11.16114081 -3.44790682 12.93125591 0 15 C0 10.05 0 5.1 0 0 Z " fill="#06584B" transform="translate(222,27)"/>
<path d="M0 0 C1.2375 0.7115625 1.2375 0.7115625 2.5 1.4375 C2.5 0.4475 2.5 -0.5425 2.5 -1.5625 C4.16611905 -1.605221 5.83382885 -1.60313832 7.5 -1.5625 C8.5 -0.5625 8.5 -0.5625 8.61352539 2.67211914 C8.61336631 4.10564126 8.60767407 5.53916912 8.59765625 6.97265625 C8.5962413 7.72590683 8.59482635 8.47915741 8.59336853 9.25523376 C8.58775376 11.6701956 8.57519883 14.08506601 8.5625 16.5 C8.5574869 18.13346221 8.55292366 19.76692586 8.54882812 21.40039062 C8.53777954 25.41279585 8.52050506 29.42513241 8.5 33.4375 C6.52 33.4375 4.54 33.4375 2.5 33.4375 C2.5 32.4475 2.5 31.4575 2.5 30.4375 C1.530625 31.0975 0.56125 31.7575 -0.4375 32.4375 C-4.76215001 34.88871863 -8.62238596 35.3186748 -13.5 34.4375 C-18.8035228 31.73570537 -22.59832298 28.14253105 -24.5 22.4375 C-25.66600376 9.17837155 -25.66600376 9.17837155 -22.5 4.3125 C-15.94217724 -2.96575963 -8.80290042 -3.92986626 0 0 Z " fill="#095A4D" transform="translate(143.5,40.5625)"/>
<path d="M0 0 C1.16015625 0.11794922 1.16015625 0.11794922 2.34375 0.23828125 C4.5 0.6875 4.5 0.6875 7.5 2.6875 C8.16 2.0275 8.82 1.3675 9.5 0.6875 C11.15 0.6875 12.8 0.6875 14.5 0.6875 C14.5 12.2375 14.5 23.7875 14.5 35.6875 C12.52 35.6875 10.54 35.6875 8.5 35.6875 C8.5 35.0275 8.5 34.3675 8.5 33.6875 C7.695625 34.1825 6.89125 34.6775 6.0625 35.1875 C1.67712324 37.03397443 -1.80738244 37.32304932 -6.5 36.6875 C-11.25169488 34.63563176 -15.36172785 31.06354362 -17.6171875 26.35546875 C-19.34022448 21.14823754 -19.58820729 15.49909136 -17.58984375 10.3359375 C-13.69973196 3.65645294 -7.97716132 -0.89078301 0 0 Z " fill="#095A4D" transform="translate(340.5,38.3125)"/>
<path d="M0 0 C4.57950669 2.53720005 8.1224432 6.06470783 10 11 C10.88055514 18.00736509 10.97796271 24.59467926 6.61328125 30.41015625 C2.7582138 34.20921787 -1.59807665 36.16038989 -7 36.5 C-11.54812082 36.23141019 -15.32199733 34.6586006 -19 32 C-23.31807211 26.68544972 -24.36944391 22.0706194 -24.28125 15.37890625 C-23.65014372 10.04079898 -21.26104499 6.17097035 -17.375 2.5625 C-11.94331835 -1.01097477 -6.35937064 -0.92014231 0 0 Z " fill="#095A4D" transform="translate(74,39)"/>
<path d="M0 0 C2.5 1.625 2.5 1.625 3.5 3.625 C3.99512681 7.99862014 3.99223866 9.94455244 1.375 13.5625 C-1.5 15.625 -1.5 15.625 -4.6875 16.125 C-5.615625 15.96 -6.54375 15.795 -7.5 15.625 C-9.5 12.625 -9.5 12.625 -9.125 9.9375 C-8.815625 8.7928125 -8.815625 8.7928125 -8.5 7.625 C-6.85 7.625 -5.2 7.625 -3.5 7.625 C-3.5 8.285 -3.5 8.945 -3.5 9.625 C-2.84 9.295 -2.18 8.965 -1.5 8.625 C-1.24969023 6.20880177 -1.24969023 6.20880177 -1.5 3.625 C-4.74826674 1.45948884 -5.73094157 1.07343047 -9.5 1.625 C-11.97722993 3.01779682 -11.97722993 3.01779682 -13.5 5.625 C-14.09992481 11.02432329 -13.92160701 14.22579099 -10.5 18.625 C-9.778125 19.32625 -9.05625 20.0275 -8.3125 20.75 C-6.5 22.625 -6.5 22.625 -6.5 25.625 C-7.12648437 25.60179688 -7.75296875 25.57859375 -8.3984375 25.5546875 C-9.21570313 25.53664063 -10.03296875 25.51859375 -10.875 25.5 C-11.68710938 25.47679688 -12.49921875 25.45359375 -13.3359375 25.4296875 C-15.71342243 25.41129949 -15.71342243 25.41129949 -17.5 27.625 C-18.34603476 32.70120856 -16.69946656 35.65588701 -13.92578125 39.71875 C-11.94872702 42.36204443 -10.11871308 44.59549737 -7.5 46.625 C-4.40394314 46.44551844 -2.89657276 45.97229919 -0.55078125 43.91796875 C0.02285156 43.22316406 0.59648437 42.52835938 1.1875 41.8125 C1.76886719 41.12542969 2.35023438 40.43835938 2.94921875 39.73046875 C5.56321112 36.18149675 6.56004286 34.49562147 6.25 30 C5.80518815 26.57227116 5.80518815 26.57227116 3.5 24.625 C1.5068433 24.60124074 1.5068433 24.60124074 -0.625 25 C-1.90375 25.20625 -3.1825 25.4125 -4.5 25.625 C-3.92655063 22.75775314 -3.6385485 21.7635485 -1.5 19.625 C0.68745776 18.85460999 2.90008429 18.15438697 5.125 17.5 C6.31351562 17.14679687 7.50203125 16.79359375 8.7265625 16.4296875 C9.64179688 16.16414063 10.55703125 15.89859375 11.5 15.625 C11.5 14.965 11.5 14.305 11.5 13.625 C10.18 13.295 8.86 12.965 7.5 12.625 C6.875 10.75 6.875 10.75 6.5 8.625 C7.16 7.965 7.82 7.305 8.5 6.625 C13.05555556 7.18055556 13.05555556 7.18055556 14.5 8.625 C14.85941655 14.01624832 14.87350926 17.17196778 11.5 21.625 C11.005 22.12 11.005 22.12 10.5 22.625 C11.16 23.12 11.82 23.615 12.5 24.125 C14.80051811 27.00064764 15.09152188 28.89306834 14.875 32.546875 C13.55662689 39.85285931 8.17207874 44.38237659 2.5 48.625 C-1.34274979 50.9897691 -4.79101964 50.91089989 -9.16015625 50.29296875 C-15.7613765 48.40848016 -20.55946915 42.99845115 -24.5 37.625 C-25.74005326 33.90484022 -26.03598363 30.49012142 -25.5 26.625 C-23.45332572 23.00396089 -22.11495869 21.8733487 -18.25 20.3125 C-16.88875 19.9721875 -16.88875 19.9721875 -15.5 19.625 C-16.304375 18.944375 -17.10875 18.26375 -17.9375 17.5625 C-21.0115335 14.03860794 -21.58158318 12.27524138 -21.5 7.625 C-16.914497 -1.54600601 -9.23089104 -3.62642148 0 0 Z " fill="#9EC53C" transform="translate(261.5,26.375)"/>
<path d="M0 0 C4.91471098 2.41510869 6.85404727 4.91329723 9 10 C9 13.63 9 17.26 9 21 C1.08 21 -6.84 21 -15 21 C-12.73482443 26.75600424 -12.73482443 26.75600424 -9.875 28.4375 C-4.07610801 29.57206582 1.69199988 28.56838716 7 26 C7 28.31 7 30.62 7 33 C1.05730895 36.16943522 -4.29725652 36.91124911 -11 36 C-15.45146251 33.81473658 -18.18885145 31.0605479 -21 27 C-23.05550007 20.83349979 -23.08538284 13.47183936 -20.375 7.5 C-15.61325376 -0.38151102 -8.63318418 -1.28974892 0 0 Z " fill="#095A4D" transform="translate(427,39)"/>
<path d="M0 0 C1.98 0 3.96 0 6 0 C6 6.6 6 13.2 6 20 C13.59 20 21.18 20 29 20 C29 13.4 29 6.8 29 0 C31.31 0 33.62 0 36 0 C36 15.51 36 31.02 36 47 C33.69 47 31.38 47 29 47 C29 40.07 29 33.14 29 26 C21.41 26 13.82 26 6 26 C6 32.93 6 39.86 6 47 C4.02 47 2.04 47 0 47 C0 31.49 0 15.98 0 0 Z " fill="#07574A" transform="translate(8,27)"/>
<path d="M0 0 C1.2065625 0.0309375 1.2065625 0.0309375 2.4375 0.0625 C2.7675 0.7225 3.0975 1.3825 3.4375 2.0625 C4.4275 1.4025 5.4175 0.7425 6.4375 0.0625 C11.27267391 -0.51382878 15.88836641 -0.55069871 20.4375 1.25 C23.64420343 4.15607498 25.29241741 6.76486881 25.77807617 11.10864258 C25.76236572 12.21361084 25.74665527 13.3185791 25.73046875 14.45703125 C25.72080078 15.65908203 25.71113281 16.86113281 25.70117188 18.09960938 C25.67603516 19.34548828 25.65089844 20.59136719 25.625 21.875 C25.60469727 23.77282227 25.60469727 23.77282227 25.58398438 25.70898438 C25.54868318 28.82725643 25.49936819 31.94466042 25.4375 35.0625 C23.1275 35.0625 20.8175 35.0625 18.4375 35.0625 C18.42291748 34.28535645 18.40833496 33.50821289 18.39331055 32.70751953 C18.31903022 29.20033312 18.22230411 25.6941199 18.125 22.1875 C18.10244141 20.96417969 18.07988281 19.74085937 18.05664062 18.48046875 C18.0034668 16.73056641 18.0034668 16.73056641 17.94921875 14.9453125 C17.92303467 13.86652832 17.89685059 12.78774414 17.86987305 11.67626953 C17.72718994 10.81372559 17.58450684 9.95118164 17.4375 9.0625 C13.94625983 6.73500655 12.54527749 6.55950684 8.4375 7.0625 C5.75462134 9.1443165 4.58194215 10.35941041 3.89160156 13.71972656 C3.8706543 14.70424805 3.84970703 15.68876953 3.828125 16.703125 C3.79589844 17.77304687 3.76367188 18.84296875 3.73046875 19.9453125 C3.71628906 21.05648437 3.70210937 22.16765625 3.6875 23.3125 C3.65785156 24.43914063 3.62820312 25.56578125 3.59765625 26.7265625 C3.52701088 29.50528021 3.47428723 32.28316148 3.4375 35.0625 C1.1275 35.0625 -1.1825 35.0625 -3.5625 35.0625 C-3.5871519 30.23869198 -3.60533693 25.41492033 -3.61743164 20.59106445 C-3.62247174 18.94880536 -3.62930378 17.30655077 -3.63793945 15.66430664 C-3.65001926 13.30874521 -3.65573139 10.95324291 -3.66015625 8.59765625 C-3.66531754 7.85910904 -3.67047882 7.12056183 -3.67579651 6.3596344 C-3.6759925 4.59351912 -3.62444719 2.82752854 -3.5625 1.0625 C-2.5625 0.0625 -2.5625 0.0625 0 0 Z " fill="#0E5C4F" transform="translate(163.5625,38.9375)"/>
<path d="M0 0 C1.875 1.625 1.875 1.625 3 4 C2.86920578 11.06288796 -0.39411034 15.35546106 -4.9375 20.4375 C-8 23 -8 23 -10.4375 23.3125 C-16.28713908 20.3163434 -20.76800034 15.17082258 -23 9 C-23.60010528 3.89910511 -23.60010528 3.89910511 -21.88671875 1.33203125 C-19.08411366 -0.64661955 -16.81743298 -0.25339969 -13.4375 -0.125 C-8.57482276 0.03763135 -4.59930783 -1.45831712 0 0 Z " fill="#FCFDF9" transform="translate(266,51)"/>
<path d="M0 0 C2.5 0.125 2.5 0.125 3.5 1.125 C3.64115161 3.79558851 3.54247107 6.44932238 3.5 9.125 C4.13808594 9.11339844 4.77617187 9.10179687 5.43359375 9.08984375 C6.25988281 9.08082031 7.08617187 9.07179688 7.9375 9.0625 C8.76121094 9.05089844 9.58492188 9.03929687 10.43359375 9.02734375 C12.5 9.125 12.5 9.125 13.5 10.125 C13.5 11.775 13.5 13.425 13.5 15.125 C10.2 15.125 6.9 15.125 3.5 15.125 C3.61350996 18.58406666 3.74026306 22.04175193 3.875 25.5 C3.9059375 26.48484375 3.936875 27.4696875 3.96875 28.484375 C4.00742187 29.42539062 4.04609375 30.36640625 4.0859375 31.3359375 C4.1173584 32.20524902 4.1487793 33.07456055 4.18115234 33.97021484 C4.31229433 36.33461794 4.31229433 36.33461794 6.5 38.125 C8.82275177 38.52547444 11.15739357 38.8647104 13.5 39.125 C13.5 41.105 13.5 43.085 13.5 45.125 C8.79300559 45.59569944 4.88992621 45.98062871 1.0625 42.875 C-2.48946711 39.06313286 -3.7620939 36.56832407 -3.6953125 31.359375 C-3.68564453 30.02519531 -3.68564453 30.02519531 -3.67578125 28.6640625 C-3.65902344 27.74367188 -3.64226562 26.82328125 -3.625 25.875 C-3.61597656 24.93914063 -3.60695313 24.00328125 -3.59765625 23.0390625 C-3.57413636 20.73411343 -3.54126853 18.4296884 -3.5 16.125 C-5.15 15.795 -6.8 15.465 -8.5 15.125 C-8.5 13.475 -8.5 11.825 -8.5 10.125 C-6.85 9.795 -5.2 9.465 -3.5 9.125 C-3.520625 7.825625 -3.54125 6.52625 -3.5625 5.1875 C-3.58399454 3.83334367 -3.57148199 2.47743917 -3.5 1.125 C-2.5 0.125 -2.5 0.125 0 0 Z " fill="#0C5C4F" transform="translate(446.5,29.875)"/>
<path d="M0 0 C2.5 0.125 2.5 0.125 3.5 1.125 C3.64115161 3.79558851 3.54247107 6.44932238 3.5 9.125 C6.47 9.125 9.44 9.125 12.5 9.125 C12.5 11.105 12.5 13.085 12.5 15.125 C9.53 15.125 6.56 15.125 3.5 15.125 C3.6095693 18.58400478 3.74026848 22.04189109 3.875 25.5 C3.9059375 26.48484375 3.936875 27.4696875 3.96875 28.484375 C4.00742187 29.42539062 4.04609375 30.36640625 4.0859375 31.3359375 C4.1173584 32.20524902 4.1487793 33.07456055 4.18115234 33.97021484 C4.31229433 36.33461794 4.31229433 36.33461794 6.5 38.125 C8.82275177 38.52547444 11.15739357 38.8647104 13.5 39.125 C13.5 41.105 13.5 43.085 13.5 45.125 C7.93336539 45.41292938 4.2827493 45.35057511 -0.5 42.125 C-4.54016697 37.39876694 -3.84131405 32.18504173 -3.6875 26.3125 C-3.67396484 25.33345703 -3.66042969 24.35441406 -3.64648438 23.34570312 C-3.61125312 20.93823375 -3.56199265 18.53190436 -3.5 16.125 C-5.15 15.795 -6.8 15.465 -8.5 15.125 C-8.5 13.475 -8.5 11.825 -8.5 10.125 C-6.85 9.795 -5.2 9.465 -3.5 9.125 C-3.520625 7.825625 -3.54125 6.52625 -3.5625 5.1875 C-3.58399454 3.83334367 -3.57148199 2.47743917 -3.5 1.125 C-2.5 0.125 -2.5 0.125 0 0 Z " fill="#105E51" transform="translate(471.5,29.875)"/>
<path d="M0 0 C2.94048778 1.76429267 4.55696297 3.29516836 6.375 6.1875 C7.60021517 11.70096828 7.09297093 16.27240079 4.0625 21.0625 C-0.29745503 23.8208389 -3.98177526 24.11881732 -9 23 C-12.71739281 20.24912932 -13.68106259 18.81794323 -14.46875 14.328125 C-14.73377313 9.42519705 -14.65386998 6.86035523 -11.625 2.875 C-7.49193867 -0.07718667 -5.12536642 -0.43435309 0 0 Z " fill="#F8FAFA" transform="translate(71,45)"/>
<path d="M0 0 C2.875 2.4375 2.875 2.4375 5 5 C5.33 5.33 5.66 5.66 6 6 C6.52263424 10.38266144 7.02371348 15.01751008 4.953125 19.02734375 C2.28742479 22.2340243 0.31986052 23.85334883 -3.8125 24.3125 C-7.80093862 23.92147661 -9.22786279 22.84914102 -12 20 C-14.33277758 16.00095272 -14.89453041 11.5346492 -14 7 C-10.504724 0.97097375 -6.85232443 -0.69684655 0 0 Z " fill="#F7F9F9" transform="translate(139,45)"/>
<path d="M0 0 C4.99503071 0.4913145 6.31841769 1.88091769 9.8125 5.375 C11.41234287 8.57468574 11.1754489 11.89457927 10.8125 15.375 C9.26985922 19.46299807 7.76442108 22.34258345 3.8125 24.375 C0.77268857 24.90366286 -1.18520886 24.98195589 -3.87109375 23.35546875 C-7.38627901 20.56523776 -8.92943357 18.55013135 -9.4609375 14.0703125 C-9.73769305 7.06626819 -9.73769305 7.06626819 -6.75 3.3125 C-5.904375 2.673125 -5.05875 2.03375 -4.1875 1.375 C-3.1875 0.375 -3.1875 0.375 0 0 Z " fill="#F7F9F9" transform="translate(338.1875,44.625)"/>
<path d="M0 0 C3.94237155 2.36542293 5.85997429 4.54353587 7 9 C7.4694894 13.30365283 7.28686364 15.4570081 5.25 19.3125 C1.96359018 23.23793395 1.96359018 23.23793395 -1 24 C-5.4584174 24 -7.44950078 23.44508447 -10.9375 20.625 C-13.67035983 16.88767845 -13.63563946 13.06651516 -13.43359375 8.56640625 C-12.85165708 5.1219703 -11.60243008 3.29626184 -9 1 C-5.89951072 -0.55024464 -3.42105782 -0.28992015 0 0 Z " fill="#F7F9F9" transform="translate(215,45)"/>
<path d="M0 0 C1.65 0 3.3 0 5 0 C5.66 0.66 6.32 1.32 7 2 C7.99 1.34 8.98 0.68 10 0 C12.04296875 -0.1953125 12.04296875 -0.1953125 14.1875 -0.125 C16.0746875 -0.063125 16.0746875 -0.063125 18 0 C18 1.98 18 3.96 18 6 C16.906875 6.103125 15.81375 6.20625 14.6875 6.3125 C10.53397709 7.03528303 10.53397709 7.03528303 8 10 C7.49454132 12.70484875 7.49454132 12.70484875 7.48828125 15.76171875 C7.43510742 17.43911133 7.43510742 17.43911133 7.38085938 19.15039062 C7.35830078 20.31763672 7.33574219 21.48488281 7.3125 22.6875 C7.27833984 23.86634766 7.24417969 25.04519531 7.20898438 26.25976562 C7.12642075 29.17308225 7.05729678 32.08609466 7 35 C4.69 35 2.38 35 0 35 C0 23.45 0 11.9 0 0 Z " fill="#0E5C50" transform="translate(364,39)"/>
<path d="M0 0 C1.671549 0.30791692 3.33805547 0.64386903 5 1 C5.99 1 6.98 1 8 1 C8.33 0.67 8.66 0.34 9 0 C11.67058851 -0.14115161 14.32432238 -0.04247107 17 0 C17 1.98 17 3.96 17 6 C15.906875 6.103125 14.81375 6.20625 13.6875 6.3125 C9.53397709 7.03528303 9.53397709 7.03528303 7 10 C6.49454132 12.70484875 6.49454132 12.70484875 6.48828125 15.76171875 C6.43510742 17.43911133 6.43510742 17.43911133 6.38085938 19.15039062 C6.35830078 20.31763672 6.33574219 21.48488281 6.3125 22.6875 C6.27833984 23.86634766 6.24417969 25.04519531 6.20898438 26.25976562 C6.12642075 29.17308225 6.05729678 32.08609466 6 35 C3.69 35 1.38 35 -1 35 C-1.0246519 30.17619198 -1.04283693 25.35242033 -1.05493164 20.52856445 C-1.05997174 18.88630536 -1.06680378 17.24405077 -1.07543945 15.60180664 C-1.08751926 13.24624521 -1.09323139 10.89074291 -1.09765625 8.53515625 C-1.10281754 7.79660904 -1.10797882 7.05806183 -1.11329651 6.2971344 C-1.1134925 4.53101912 -1.06194719 2.76502854 -1 1 C-0.67 0.67 -0.34 0.34 0 0 Z " fill="#0F5D50" transform="translate(387,39)"/>
<path d="M0 0 C1.98 0 3.96 0 6 0 C6 15.51 6 31.02 6 47 C4.02 47 2.04 47 0 47 C0 31.49 0 15.98 0 0 Z " fill="#005245" transform="translate(106,27)"/>
<path d="M0 0 C1.98 0 3.96 0 6 0 C6 15.51 6 31.02 6 47 C4.02 47 2.04 47 0 47 C0 31.49 0 15.98 0 0 Z " fill="#005447" transform="translate(91,27)"/>
<path d="M0 0 C2.60478883 -0.0809313 5.20706653 -0.14045434 7.8125 -0.1875 C8.55048828 -0.21263672 9.28847656 -0.23777344 10.04882812 -0.26367188 C15.505759 -0.33774786 15.505759 -0.33774786 17.94921875 1.33203125 C19.62127563 3.98618845 20 5.86178223 20 9 C17.98828125 11.67578125 17.98828125 11.67578125 15 14 C12.1612599 14.36771245 9.98179849 14.48630804 7.1875 14.3125 C6.49462891 14.28994141 5.80175781 14.26738281 5.08789062 14.24414062 C3.39098427 14.18562661 1.69520139 14.0959548 0 14 C0 9.38 0 4.76 0 0 Z " fill="#F9FBFA" transform="translate(291,54)"/>
<path d="M0 0 C12.07640751 -0.60991957 12.07640751 -0.60991957 16.3125 2.1875 C18.15305553 5.25509255 18.8034163 6.51852936 18 10 C16.41796875 12.13671875 16.41796875 12.13671875 14 14 C9.2805118 14.53387876 4.76525513 14.17649093 0 14 C0 9.38 0 4.76 0 0 Z " fill="#F2F5F5" transform="translate(291,33)"/>
<path d="M0 0 C2.27984591 1.82273395 3.37186108 3.4837853 5 6 C5 6.99 5 7.98 5 9 C-0.94 9 -6.88 9 -13 9 C-12 4 -12 4 -9.875 1.6875 C-6.17949567 -0.48160037 -4.21875652 -0.75334938 0 0 Z " fill="#E8EDEC" transform="translate(425,45)"/>
<path d="M0 0 C2.5 0.125 2.5 0.125 3.5 1.125 C3.64115161 3.79558851 3.54247107 6.44932238 3.5 9.125 C3.17 9.125 2.84 9.125 2.5 9.125 C2.5 6.815 2.5 4.505 2.5 2.125 C1.18 2.125 -0.14 2.125 -1.5 2.125 C-1.479375 3.259375 -1.45875 4.39375 -1.4375 5.5625 C-1.5 9.125 -1.5 9.125 -2.5 10.125 C-4.16617115 10.16563832 -5.83388095 10.167721 -7.5 10.125 C-6.18 9.795 -4.86 9.465 -3.5 9.125 C-3.520625 7.825625 -3.54125 6.52625 -3.5625 5.1875 C-3.58399454 3.83334367 -3.57148199 2.47743917 -3.5 1.125 C-2.5 0.125 -2.5 0.125 0 0 Z " fill="#3C756A" transform="translate(446.5,29.875)"/>
</svg>
