<?xml version="1.0" encoding="UTF-8"?>
<svg version="1.1" xmlns="http://www.w3.org/2000/svg" width="512" height="512">
<path d="M0 0 C168.96 0 337.92 0 512 0 C512 168.96 512 337.92 512 512 C343.04 512 174.08 512 0 512 C0 343.04 0 174.08 0 0 Z " fill="#FEFEFE" transform="translate(0,0)"/>
<path d="M0 0 C0.99904358 -0.01283524 1.99808716 -0.02567047 3.02740479 -0.03889465 C4.11889832 -0.04628159 5.21039185 -0.05366852 6.33496094 -0.0612793 C7.45690857 -0.06935104 8.5788562 -0.07742279 9.73480225 -0.08573914 C12.12233931 -0.09961006 14.50989647 -0.11031866 16.89746094 -0.11816406 C20.51244316 -0.13522947 24.12647543 -0.17907102 27.74121094 -0.22338867 C57.46476377 -0.42290332 57.46476377 -0.42290332 68.08496094 9.8918457 C74.47914363 16.67558995 77.51247191 22.71666891 77.75683594 32.11450195 C77.41278318 42.11353517 75.33056251 48.69960347 68.84277344 56.36450195 C67.25602406 58.10933428 67.25602406 58.10933428 66.31933594 60.17700195 C67.16496094 60.67200195 68.01058594 61.16700195 68.88183594 61.67700195 C75.39222214 66.04297184 79.71794992 71.81284094 82.31933594 79.17700195 C83.56734105 91.17987469 82.26475413 102.18575903 75.10058594 112.1418457 C68.62364313 119.54203694 58.69995637 123.48417446 49.05996704 124.53091431 C45.60428186 124.65173446 42.17123524 124.6540062 38.71386719 124.6027832 C37.46804367 124.59949509 36.22222015 124.59620697 34.93864441 124.59281921 C32.33103126 124.58246988 29.72343976 124.56264356 27.1159668 124.53369141 C23.76883446 124.49656714 20.42260815 124.47600171 17.07535267 124.46638203 C13.87147528 124.45644891 10.66768917 124.43621775 7.46386719 124.4152832 C6.25986771 124.40789627 5.05586823 124.40050934 3.81538391 124.39289856 C2.71300888 124.38006332 1.61063385 124.36722809 0.47485352 124.35400391 C-0.49933029 124.3441597 -1.4735141 124.33431549 -2.47721863 124.32417297 C-4.68066406 124.17700195 -4.68066406 124.17700195 -5.68066406 123.17700195 C-5.77877541 121.59777467 -5.80698298 120.01415662 -5.80764771 118.43188477 C-5.81046753 117.40542847 -5.81328735 116.37897217 -5.81619263 115.32141113 C-5.8141684 114.18578735 -5.81214417 113.05016357 -5.81005859 111.88012695 C-5.81268707 110.09741394 -5.81268707 110.09741394 -5.81536865 108.27868652 C-5.81902677 105.01017419 -5.81815378 101.74170207 -5.81498957 98.47319031 C-5.81246553 95.05968132 -5.81480363 91.6461751 -5.81637573 88.23266602 C-5.8181973 82.49926264 -5.81579145 76.76587213 -5.81103516 71.0324707 C-5.80559256 64.3949442 -5.80735522 57.7574484 -5.81286156 51.11992264 C-5.81739306 45.43075929 -5.81804306 39.74160521 -5.81542289 34.05244064 C-5.81386032 30.65031175 -5.81366582 27.24819731 -5.81695938 23.84606934 C-5.81948416 20.05531708 -5.81564777 16.26462472 -5.81005859 12.47387695 C-5.81208282 11.33825317 -5.81410706 10.20262939 -5.81619263 9.03259277 C-5.8133728 8.00613647 -5.81055298 6.97968018 -5.80764771 5.92211914 C-5.80727068 5.0246698 -5.80689365 4.12722046 -5.8065052 3.20257568 C-5.56507062 -0.68362202 -3.38008153 0.03771121 0 0 Z " fill="#0C584A" transform="translate(335.6806640625,192.822998046875)"/>
<path d="M0 0 C4.24076756 2.97572504 8.16536239 6.02786618 10 11 C11.07605232 19.993532 10.32940137 27.53298159 5 35 C0.29399465 39.82667216 -4.86569859 41.10357116 -11.4375 41.625 C-15.88434336 41.53387616 -18.06430641 40.75552109 -21.1875 37.5625 C-23.97606065 33.78185527 -24.90915597 30.72980471 -24.48046875 26.0546875 C-23.69513895 22.69628529 -22.732218 21.11746895 -20 19 C-15.02194074 18.20983186 -15.02194074 18.20983186 -12 19 C-9.25 21.5625 -9.25 21.5625 -7 24 C-4.74992715 24.10546369 -4.74992715 24.10546369 -3 23 C-1.14756084 19.29512168 -1.5414838 15.04385812 -2 11 C-4.34164423 6.83707693 -6.55994704 5.47358279 -11 4 C-17.2267353 3.30209808 -22.68971883 3.37346652 -28 7 C-33.77060083 11.94622928 -35.54301487 16.8086489 -36.1953125 24.21875 C-36.56065598 31.91531936 -35.51245966 38.90803661 -30.35449219 44.91699219 C-26.53783048 48.96989577 -22.52998607 52.80934961 -18.42700195 56.57055664 C-16.65987193 58.34070998 -16.02838113 59.43464788 -15.90234375 61.9453125 C-15.93489583 63.96354167 -15.96744792 65.98177083 -16 68 C-18.91583968 67.58345147 -20.76507036 67.16780689 -23.1875 65.4375 C-27.93571816 63.01063294 -33.00958501 63.11456986 -38.09765625 64.62109375 C-41.59295801 66.29082389 -43.46121224 68.2779899 -44.9375 71.75 C-47.46363592 80.32307378 -45.66849491 87.06291689 -42 95 C-35.91283227 105.75513624 -26.64954583 116.61396385 -16 123 C-12.45855023 123.817395 -12.45855023 123.817395 -9 122 C-5.36148015 119.28477734 -2.18960041 116.22379214 1 113 C2.18529297 111.84757812 2.18529297 111.84757812 3.39453125 110.671875 C11.52934377 102.30147165 17.89883955 91.5965666 18.3125 79.6875 C18.23839958 74.75570543 16.96962056 70.95330737 14 67 C9.73999676 63.75428325 5.53454263 63.49630851 0.33203125 63.62890625 C-2.92766669 64.14761865 -4.63808107 65.77701748 -7 68 C-8.32 68 -9.64 68 -11 68 C-11.4139209 63.19851755 -11.56455367 60.94699325 -9.0625 56.75 C-5.71123251 53.23642041 -1.46591081 51.68236366 3 50 C3.7528125 49.67515625 4.505625 49.3503125 5.28125 49.015625 C9.45837786 47.45520367 13.78520496 46.52305123 18.1171875 45.5 C21.89034856 44.58874601 25.43302481 43.52870365 29 42 C29.99 41.67 30.98 41.34 32 41 C32.80212628 39.12612784 32.80212628 39.12612784 33.1875 36.9375 C33.34605469 36.20402344 33.50460937 35.47054687 33.66796875 34.71484375 C33.77753906 34.14894531 33.88710938 33.58304688 34 33 C33.29875 33.495 32.5975 33.99 31.875 34.5 C28.57245526 36.22306682 26.67482275 36.39943726 23 36 C21.515 35.01 21.515 35.01 20 34 C20 33.34 20 32.68 20 32 C19.34 32 18.68 32 18 32 C17.3895606 23.11471542 17.3895606 23.11471542 19.4375 19.375 C23.32786164 17.28748888 26.69642338 17.02355825 31 18 C34.92226427 20.32134008 37.54858907 22.64576722 39 27 C39.7771898 37.92549504 38.73437272 45.29762767 31.59765625 53.65234375 C29.76055534 55.20197655 28.34630065 55.59965928 26 56 C26 56.99 26 57.98 26 59 C27.11375 59.37125 27.11375 59.37125 28.25 59.75 C33.51610731 62.14368514 35.80215632 65.76646062 38 71 C39.71942622 85.24258049 36.52169849 95.87705981 27.8125 107.25 C19.64297052 117.4049311 7.33294091 128.34923553 -5.88671875 130.78515625 C-21.58221606 132.38081679 -32.35101262 127.46814901 -44.56884766 117.75244141 C-52.21672292 111.46492573 -58.08781721 104.67942073 -63 96 C-63.38027344 95.34902344 -63.76054687 94.69804687 -64.15234375 94.02734375 C-67.46536228 87.080692 -67.29093227 76.68483486 -65.2734375 69.36328125 C-63.30183023 65.15558281 -60.49284697 62.06689002 -57 59 C-56.195625 58.278125 -55.39125 57.55625 -54.5625 56.8125 C-49.18224956 53.00695701 -43.39062282 52.53965259 -37 52 C-37.58007812 51.6596875 -38.16015625 51.319375 -38.7578125 50.96875 C-45.99492663 46.47839536 -51.35150086 41.27054049 -54 33 C-54.79458532 24.26988077 -54.72667651 16.88496785 -49.265625 9.7265625 C-38.18922307 -3.53936074 -15.85096423 -8.36416194 0 0 Z " fill="#9DC33D" transform="translate(272,192)"/>
<path d="M0 0 C1.1653125 0.00515625 2.330625 0.0103125 3.53125 0.015625 C4.6965625 0.01046875 5.861875 0.0053125 7.0625 0 C10.03125 0.265625 10.03125 0.265625 12.03125 2.265625 C12.27175903 4.44229126 12.27175903 4.44229126 12.25830078 7.17431641 C12.25805908 8.20951416 12.25781738 9.24471191 12.25756836 10.3112793 C12.24222046 11.94770386 12.24222046 11.94770386 12.2265625 13.6171875 C12.22454834 14.6177417 12.22253418 15.6182959 12.22045898 16.64916992 C12.20997374 20.39636807 12.18205129 24.14350101 12.15625 27.890625 C12.115 36.264375 12.07375 44.638125 12.03125 53.265625 C31.50125 53.265625 50.97125 53.265625 71.03125 53.265625 C70.95206581 36.57146881 70.95206581 36.57146881 70.85107422 19.87744141 C70.84523517 17.79069217 70.84013823 15.70394067 70.8359375 13.6171875 C70.82570557 12.52623779 70.81547363 11.43528809 70.80493164 10.3112793 C70.80456909 8.75848267 70.80456909 8.75848267 70.80419922 7.17431641 C70.799758 6.27274811 70.79531677 5.37117981 70.79074097 4.44229126 C71.03125 2.265625 71.03125 2.265625 73.03125 0.265625 C76 0 76 0 79.53125 0.015625 C80.6965625 0.01046875 81.861875 0.0053125 83.0625 0 C86.03125 0.265625 86.03125 0.265625 88.03125 2.265625 C88.28293228 4.38021851 88.28293228 4.38021851 88.28521729 7.04833984 C88.29085693 8.05789734 88.29649658 9.06745483 88.30230713 10.10760498 C88.29825867 11.21936096 88.29421021 12.33111694 88.29003906 13.4765625 C88.2935437 14.64407043 88.29704834 15.81157837 88.30065918 17.01446533 C88.30796754 20.22104608 88.30623455 23.42746247 88.29990101 26.63404083 C88.2948466 29.98568362 88.2995309 33.33732202 88.30267334 36.68896484 C88.30631462 42.31805398 88.30150966 47.94709069 88.29199219 53.57617188 C88.28110729 60.08933146 88.28463276 66.60236584 88.295645 73.11552238 C88.30471328 78.70197053 88.30600541 84.28838093 88.30076766 89.87483406 C88.29764542 93.21383551 88.29724555 96.55279032 88.30384064 99.89178467 C88.30889634 103.61283949 88.30120891 107.33365089 88.29003906 111.0546875 C88.29408752 112.16644348 88.29813599 113.27819946 88.30230713 114.42364502 C88.29666748 115.43320251 88.29102783 116.44276001 88.28521729 117.48291016 C88.28446323 118.3633902 88.28370918 119.24387024 88.28293228 120.15103149 C88.03125 122.265625 88.03125 122.265625 86.03125 124.265625 C82.80859375 124.49609375 82.80859375 124.49609375 78.96875 124.453125 C77.69902344 124.44667969 76.42929688 124.44023437 75.12109375 124.43359375 C72.03125 124.265625 72.03125 124.265625 71.03125 123.265625 C70.93778085 121.60824057 70.91380023 119.94687856 70.91772461 118.28686523 C70.91784546 117.21094116 70.91796631 116.13501709 70.91809082 115.02648926 C70.92320679 113.88723999 70.92832275 112.74799072 70.93359375 111.57421875 C70.93460083 110.53334106 70.93560791 109.49246338 70.93664551 108.42004395 C70.94189599 104.51439316 70.95585711 100.60875803 70.96875 96.703125 C70.989375 87.97875 71.01 79.254375 71.03125 70.265625 C51.56125 70.265625 32.09125 70.265625 12.03125 70.265625 C12.07086002 87.66297926 12.07086002 87.66297926 12.12133789 105.06030273 C12.12425684 107.23160758 12.12680545 109.40291296 12.12890625 111.57421875 C12.13402222 112.71346802 12.13913818 113.85271729 12.14440918 115.02648926 C12.14453003 116.10241333 12.14465088 117.1783374 12.14477539 118.28686523 C12.146996 119.22618393 12.14921661 120.16550262 12.15150452 121.13328552 C12.03125 123.265625 12.03125 123.265625 11.03125 124.265625 C8.72050832 124.36494892 6.40662058 124.39532118 4.09375 124.390625 C2.19302734 124.39449219 2.19302734 124.39449219 0.25390625 124.3984375 C-2.96875 124.265625 -2.96875 124.265625 -4.96875 123.265625 C-5.01542656 107.52373663 -5.05071748 91.78186688 -5.07237434 76.03992653 C-5.08269632 68.73102127 -5.09677417 61.42215895 -5.11962891 54.11328125 C-5.13953467 47.7444504 -5.15245973 41.37565065 -5.15692699 35.00678957 C-5.15953916 31.6330845 -5.16569785 28.25946839 -5.18021011 24.88579178 C-5.19464009 21.12383913 -5.19673151 17.36207333 -5.19580078 13.60009766 C-5.20299133 12.47584885 -5.21018188 11.35160004 -5.21759033 10.19328308 C-5.214841 9.17242111 -5.21209167 8.15155914 -5.20925903 7.09976196 C-5.21110262 6.20930994 -5.21294621 5.31885792 -5.21484566 4.4014225 C-4.79964039 0.79796857 -3.46616011 0.31013011 0 0 Z " fill="#095647" transform="translate(98.96875,192.734375)"/>
<path d="M0 0 C5.26619044 -0.09220956 10.52954165 -0.17172841 15.79589844 -0.21972656 C17.58440684 -0.23974959 19.37285054 -0.26697654 21.16113281 -0.30175781 C23.74300162 -0.35068955 26.3239995 -0.37306165 28.90625 -0.390625 C30.09112 -0.42159271 30.09112 -0.42159271 31.29992676 -0.45318604 C36.93359201 -0.45542505 41.3334873 0.75440576 46 4 C50.45067147 9.59186929 51.41766289 14.15585686 51.34375 21.140625 C50.80356359 25.63399378 49.00971953 28.67676802 46 32 C40.19029225 36.53157205 35.78377432 37.14447403 28.61328125 37.09765625 C27.88894897 37.09664917 27.1646167 37.09564209 26.41833496 37.09460449 C23.71637384 37.08937826 21.0144353 37.07541698 18.3125 37.0625 C12.269375 37.041875 6.22625 37.02125 0 37 C0 24.79 0 12.58 0 0 Z " fill="#F9FCFB" transform="translate(348,263)"/>
<path d="M0 0 C5.445 -0.0825 10.89 -0.165 16.5 -0.25 C18.20220703 -0.28641602 19.90441406 -0.32283203 21.65820312 -0.36035156 C30.78598866 -0.4746073 37.60749068 -0.28269658 44.5 6.4375 C46.80766257 11.9181986 46.73866152 17.14293646 46 23 C43.6156649 28.03359633 40.00006427 31.49996787 35 34 C32.37372867 34.08667255 29.77437517 34.11560135 27.1484375 34.09765625 C26.37440582 34.0962413 25.60037415 34.09482635 24.80288696 34.09336853 C22.32688558 34.08776403 19.85097412 34.07521083 17.375 34.0625 C15.69791797 34.05748558 14.02083453 34.05292257 12.34375 34.04882812 C8.22910403 34.03864336 4.11465285 34.01906894 0 34 C0 22.78 0 11.56 0 0 Z " fill="#FAFDFC" transform="translate(348,211)"/>
<path d="M0 0 C2.14576637 -0.02685938 4.29162645 -0.04633088 6.4375 -0.0625 C7.63246094 -0.07410156 8.82742187 -0.08570313 10.05859375 -0.09765625 C13 0 13 0 14 1 C14.09588124 2.55620396 14.12188033 4.11676454 14.12025452 5.67591858 C14.12162918 6.68699173 14.12300385 7.69806488 14.12442017 8.73977661 C14.12082489 9.85826996 14.11722961 10.97676331 14.11352539 12.12915039 C14.11367142 13.29972488 14.11381744 14.47029938 14.1139679 15.67634583 C14.11338895 18.89520943 14.10835991 22.11403004 14.10139394 25.33288503 C14.09515957 28.693474 14.09455654 32.05406373 14.09336853 35.41465759 C14.09025546 41.78242342 14.0820424 48.15017216 14.07201904 54.51793045 C14.06085715 61.76569729 14.05534726 69.01346493 14.05032361 76.26123822 C14.03985977 91.17416835 14.0222608 106.08708247 14 121 C11.85809845 117.78714767 11.74551453 116.93348992 11.7215271 113.23542786 C11.70478188 111.76517906 11.70478188 111.76517906 11.68769836 110.26522827 C11.68553818 109.19132843 11.68337799 108.11742859 11.68115234 107.01098633 C11.66608391 105.31320793 11.66608391 105.31320793 11.65071106 103.58113098 C11.61976393 99.83143635 11.60281174 96.08181348 11.5859375 92.33203125 C11.56723515 89.73556394 11.54766245 87.13910276 11.5272522 84.54264832 C11.48108577 78.40164564 11.44371297 72.26064683 11.41057932 66.11956185 C11.37236803 59.1280323 11.32295531 52.13659601 11.27259517 45.14514506 C11.169254 30.76349932 11.08039806 16.38179107 11 2 C7.37 1.67 3.74 1.34 0 1 C0 0.67 0 0.34 0 0 Z " fill="#124E46" transform="translate(173,194)"/>
<path d="M0 0 C0.33 0 0.66 0 1 0 C1.33 38.94 1.66 77.88 2 118 C20.48 118.33 38.96 118.66 58 119 C58 119.66 58 120.32 58 121 C50.58540058 121.02312883 43.17080889 121.04091785 35.75618076 121.05181217 C32.31359652 121.05703982 28.87103688 121.06413531 25.4284668 121.07543945 C21.47444957 121.08834235 17.52044244 121.09322918 13.56640625 121.09765625 C11.70394005 121.10539818 11.70394005 121.10539818 9.80384827 121.11329651 C8.09218727 121.11340981 8.09218727 121.11340981 6.34594727 121.11352539 C5.335569 121.115746 4.32519073 121.11796661 3.28419495 121.12025452 C1 121 1 121 0 120 C-0.09588124 118.44379604 -0.12188033 116.88323546 -0.12025452 115.32408142 C-0.12162918 114.31300827 -0.12300385 113.30193512 -0.12442017 112.26022339 C-0.12082489 111.14173004 -0.11722961 110.02323669 -0.11352539 108.87084961 C-0.11367142 107.70027512 -0.11381744 106.52970062 -0.1139679 105.32365417 C-0.11338895 102.10479057 -0.10835991 98.88596996 -0.10139394 95.66711497 C-0.09515957 92.306526 -0.09455654 88.94593627 -0.09336853 85.58534241 C-0.09025546 79.21757658 -0.0820424 72.84982784 -0.07201904 66.48206955 C-0.06085715 59.23430271 -0.05534726 51.98653507 -0.05032361 44.73876178 C-0.03985977 29.82583165 -0.0222608 14.91291753 0 0 Z " fill="#1C5247" transform="translate(330,196)"/>
<path d="M0 0 C23.75126996 -0.69856676 23.75126996 -0.69856676 31.625 5.6875 C32.40875 6.450625 33.1925 7.21375 34 8 C31.29120665 9.35439668 28.99066732 9.06501451 26 9 C26 9.66 26 10.32 26 11 C26.66 11 27.32 11 28 11 C29.04976964 14.14930893 29.10131595 16.38814456 29.0625 19.6875 C29.05347656 20.68136719 29.04445313 21.67523438 29.03515625 22.69921875 C29.02355469 23.45847656 29.01195312 24.21773437 29 25 C28.01 25.33 27.02 25.66 26 26 C26.04640625 25.19175781 26.0928125 24.38351563 26.140625 23.55078125 C26.46249726 16.95820492 26.46249726 16.95820492 24.3125 10.875 C18.73080803 6.34930381 12.88825355 6.4763316 6 7 C2.49170286 7.85715849 2.49170286 7.85715849 0 9 C0 8.01 0 7.02 0 6 C1.32 6 2.64 6 4 6 C4 5.01 4 4.02 4 3 C4.66 2.67 5.32 2.34 6 2 C3.03 1.505 3.03 1.505 0 1 C0 0.67 0 0.34 0 0 Z " fill="#A4C251" transform="translate(244,189)"/>
<path d="M0 0 C19.8 0 39.6 0 60 0 C60 17.16 60 34.32 60 52 C64.62 52 69.24 52 74 52 C73.67 52.99 73.34 53.98 73 55 C70.68756208 55.02685412 68.3750373 55.04632841 66.0625 55.0625 C64.13083984 55.07990234 64.13083984 55.07990234 62.16015625 55.09765625 C59 55 59 55 58 54 C57.90653085 52.34261557 57.88255023 50.68125356 57.88647461 49.02124023 C57.88659546 47.94531616 57.88671631 46.86939209 57.88684082 45.76086426 C57.89195679 44.62161499 57.89707275 43.48236572 57.90234375 42.30859375 C57.90335083 41.26771606 57.90435791 40.22683838 57.90539551 39.15441895 C57.91064599 35.24876816 57.92460711 31.34313303 57.9375 27.4375 C57.9684375 14.3509375 57.9684375 14.3509375 58 1 C38.86 1 19.72 1 0 1 C0 0.67 0 0.34 0 0 Z " fill="#295950" transform="translate(112,262)"/>
<path d="M0 0 C4.6750056 0.19097245 7.09202075 1.88314445 10.4375 5.01953125 C14.26065305 9.69606668 13.14976019 16.96173069 12.75 22.625 C12.00685792 25.53708 11.03597571 27.89230161 9.75 30.625 C9.42 30.625 9.09 30.625 8.75 30.625 C8.75 28.315 8.75 26.005 8.75 23.625 C6.77 24.285 4.79 24.945 2.75 25.625 C3.08 24.965 3.41 24.305 3.75 23.625 C4.41 23.625 5.07 23.625 5.75 23.625 C5.94335938 22.88894531 6.13671875 22.15289062 6.3359375 21.39453125 C6.59632813 20.41871094 6.85671875 19.44289062 7.125 18.4375 C7.50785156 16.99310547 7.50785156 16.99310547 7.8984375 15.51953125 C8.69766296 12.80289793 9.6531362 10.23362825 10.75 7.625 C9.43 6.965 8.11 6.305 6.75 5.625 C6.75 4.965 6.75 4.305 6.75 3.625 C-0.30651252 3.47524761 -0.30651252 3.47524761 -7.25 4.625 C-5.54695249 0.99183197 -3.83007479 0.24794351 0 0 Z " fill="#9EBD42" transform="translate(298.25,209.375)"/>
<path d="M0 0 C11.88 0 23.76 0 36 0 C35.67 0.66 35.34 1.32 35 2 C23.78 2.33 12.56 2.66 1 3 C0.67 2.01 0.34 1.02 0 0 Z " fill="#0C4B40" transform="translate(348,300)"/>
<path d="M0 0 C1.8125 0.0625 1.8125 0.0625 4 1 C6.77056574 5.92684315 7.49143975 10.22528893 7.375 15.875 C7.36702393 16.57246338 7.35904785 17.26992676 7.35083008 17.98852539 C7.19701785 23.57444039 6.38642245 27.96199704 4 33 C2.515 33.495 2.515 33.495 1 34 C1.495 32.865625 1.99 31.73125 2.5 30.5625 C5.2399237 22.30339984 5.9820972 10.87335207 2 2.9375 C1.34 1.968125 0.68 0.99875 0 0 Z " fill="#F5FBDF" transform="translate(305,255)"/>
<path d="M0 0 C2.35119399 3.52679099 2.21443452 5.02879485 2.125 9.1875 C2.10695312 10.27417969 2.08890625 11.36085937 2.0703125 12.48046875 C2.03550781 13.72763672 2.03550781 13.72763672 2 15 C5.0469629 16.69433918 7.82821466 17.49467112 11.25 18.125 C12.14203125 18.29257813 13.0340625 18.46015625 13.953125 18.6328125 C14.62859375 18.75398438 15.3040625 18.87515625 16 19 C16 19.33 16 19.66 16 20 C6.85966895 21.19006119 6.85966895 21.19006119 2.7109375 18.53515625 C-0.67398945 15.01789677 -2.41688274 12.12230708 -2.5625 7.1875 C-2.37922822 3.84722408 -1.95124883 2.92687324 0 0 Z " fill="#AAC364" transform="translate(250,213)"/>
<path d="M0 0 C0 0.66 0 1.32 0 2 C1.32 2 2.64 2 4 2 C4 2.99 4 3.98 4 5 C4.99 5.33 5.98 5.66 7 6 C7.94137255 8.82411765 8.11725382 10.52918032 8.09765625 13.44921875 C8.09443359 14.29677734 8.09121094 15.14433594 8.08789062 16.01757812 C8.07951172 16.89865234 8.07113281 17.77972656 8.0625 18.6875 C8.05798828 19.58017578 8.05347656 20.47285156 8.04882812 21.39257812 C8.03704983 23.59511987 8.02060164 25.79752599 8 28 C7.34 28 6.68 28 6 28 C6.03480469 26.83082031 6.06960938 25.66164062 6.10546875 24.45703125 C6.13361716 22.90886859 6.16091619 21.36069032 6.1875 19.8125 C6.21263672 19.04357422 6.23777344 18.27464844 6.26367188 17.48242188 C6.32417695 12.78319471 5.98979576 9.85237742 3 6 C-0.28297215 2.71702785 -3.47073008 2.43550672 -8 2 C-4.77208445 -0.1519437 -3.71599191 -0.20086443 0 0 Z " fill="#EAF5CF" transform="translate(304,208)"/>
<path d="M0 0 C4.6750056 0.19097245 7.09202075 1.88314445 10.4375 5.01953125 C13.25944478 8.47137442 12.8545991 12.06049108 12.8125 16.3125 C12.80347656 17.49199219 12.79445313 18.67148438 12.78515625 19.88671875 C12.77355469 20.79035156 12.76195312 21.69398438 12.75 22.625 C12.42 22.625 12.09 22.625 11.75 22.625 C11.72421875 21.56539062 11.6984375 20.50578125 11.671875 19.4140625 C11.6156022 18.02599999 11.55825467 16.63798075 11.5 15.25 C11.48582031 14.55132812 11.47164063 13.85265625 11.45703125 13.1328125 C11.38964218 10.84782354 11.38964218 10.84782354 10.75 7.625 C8.83611659 6.06016506 8.83611659 6.06016506 6.75 5.625 C6.75 4.965 6.75 4.305 6.75 3.625 C-0.30651252 3.47524761 -0.30651252 3.47524761 -7.25 4.625 C-5.54695249 0.99183197 -3.83007479 0.24794351 0 0 Z " fill="#A4BE5B" transform="translate(298.25,209.375)"/>
<path d="M0 0 C0.66 0.33 1.32 0.66 2 1 C1.51015625 1.98742187 1.0203125 2.97484375 0.515625 3.9921875 C-1.24661369 8.11167958 -1.38394981 11.69628442 -1.25 16.125 C-1.24484375 16.81464844 -1.2396875 17.50429688 -1.234375 18.21484375 C-1.17771036 21.91929478 -0.86912004 25.39735727 0 29 C-0.99 28.67 -1.98 28.34 -3 28 C-3.25748454 24.8141361 -3.47577773 21.626706 -3.6875 18.4375 C-3.76033203 17.54224609 -3.83316406 16.64699219 -3.90820312 15.72460938 C-4.27057853 9.90528668 -3.79755686 6.14612311 -1 1 C-0.67 0.67 -0.34 0.34 0 0 Z " fill="#F2FCDD" transform="translate(208,256)"/>
<path d="M0 0 C5.94 0 11.88 0 18 0 C18 0.33 18 0.66 18 1 C14.04 1.66 10.08 2.32 6 3 C6 2.67 6 2.34 6 2 C3.03 1.505 3.03 1.505 0 1 C0 0.67 0 0.34 0 0 Z M4 3 C4.66 3 5.32 3 6 3 C6 3.66 6 4.32 6 5 C9.3 5 12.6 5 16 5 C16 5.33 16 5.66 16 6 C15.09636719 6.13277344 14.19273437 6.26554688 13.26171875 6.40234375 C11.49248047 6.66724609 11.49248047 6.66724609 9.6875 6.9375 C7.92986328 7.19853516 7.92986328 7.19853516 6.13671875 7.46484375 C2.98358597 7.92093031 2.98358597 7.92093031 0 9 C0 8.01 0 7.02 0 6 C1.32 6 2.64 6 4 6 C4 5.01 4 4.02 4 3 Z " fill="#A7C562" transform="translate(244,189)"/>
<path d="M0 0 C-0.66 1.65 -1.32 3.3 -2 5 C-6.29 4.67 -10.58 4.34 -15 4 C-15 3.34 -15 2.68 -15 2 C-9.87080814 -0.10428384 -5.4389165 -0.21755666 0 0 Z " fill="#9ABE3E" transform="translate(265,190)"/>
<path d="M0 0 C0.33 0.66 0.66 1.32 1 2 C-1.81196879 6.75871641 -4.32313522 8.91752094 -9 12 C-9 12.99 -9 13.98 -9 15 C-11.64 15 -14.28 15 -17 15 C-14.4755378 12.9740851 -11.94545237 10.95739233 -9.39453125 8.96484375 C-8.54246094 8.29582031 -7.69039063 7.62679688 -6.8125 6.9375 C-5.95269531 6.26589844 -5.09289062 5.59429687 -4.20703125 4.90234375 C-1.81420142 3.01172746 -1.81420142 3.01172746 0 0 Z " fill="#F0FADB" transform="translate(297,301)"/>
<path d="M0 0 C2.25722277 4.51444554 1.5593766 10.19729288 0.10546875 14.8828125 C-0.86565197 17.29174094 -1.88269221 19.65564883 -3 22 C-3.66 22 -4.32 22 -5 22 C-4.79503906 21.23816406 -4.59007812 20.47632813 -4.37890625 19.69140625 C-2.74489496 13.42899933 -1.63282289 7.43369933 -1 1 C-0.67 0.67 -0.34 0.34 0 0 Z " fill="#A6C258" transform="translate(292,266)"/>
<path d="M0 0 C1.77503906 0.03480469 1.77503906 0.03480469 3.5859375 0.0703125 C5.36871094 0.09738281 5.36871094 0.09738281 7.1875 0.125 C8.10273438 0.14820313 9.01796875 0.17140625 9.9609375 0.1953125 C9.9609375 0.5253125 9.9609375 0.8553125 9.9609375 1.1953125 C6.0009375 1.1953125 2.0409375 1.1953125 -2.0390625 1.1953125 C-2.94740219 3.92033158 -3.22266235 5.81765221 -3.35546875 8.64453125 C-3.39736328 9.49208984 -3.43925781 10.33964844 -3.48242188 11.21289062 C-3.52173828 12.09396484 -3.56105469 12.97503906 -3.6015625 13.8828125 C-3.64474609 14.77548828 -3.68792969 15.66816406 -3.73242188 16.58789062 C-3.83841603 18.79021358 -3.94048301 20.99264723 -4.0390625 23.1953125 C-4.3690625 23.1953125 -4.6990625 23.1953125 -5.0390625 23.1953125 C-5.09695256 19.73704908 -5.13262071 16.27890957 -5.1640625 12.8203125 C-5.18082031 11.83546875 -5.19757813 10.850625 -5.21484375 9.8359375 C-5.22128906 8.89492187 -5.22773438 7.95390625 -5.234375 6.984375 C-5.24484863 6.11506348 -5.25532227 5.24575195 -5.26611328 4.35009766 C-4.87892851 0.67558931 -3.52947801 0.22683021 0 0 Z " fill="#38665D" transform="translate(175.0390625,192.8046875)"/>
<path d="M0 0 C5.42530925 0.38752209 8.25142316 2.07707075 12 6 C12.875 9.3125 12.875 9.3125 13 12 C10.65941363 9.87219421 9.29299694 7.88437779 8 5 C6.35 5 4.7 5 3 5 C2.87625 4.360625 2.7525 3.72125 2.625 3.0625 C2.315625 2.0415625 2.315625 2.0415625 2 1 C1.34 0.67 0.68 0.34 0 0 Z " fill="#F6FDE6" transform="translate(258,195)"/>
<path d="M0 0 C0.66 0.33 1.32 0.66 2 1 C1.67 3.64 1.34 6.28 1 9 C0.67 8.34 0.34 7.68 0 7 C-0.350625 7.495 -0.70125 7.99 -1.0625 8.5 C-3.94374289 10.73063966 -6.47009026 10.19980621 -10 10 C-9.67 9.01 -9.34 8.02 -9 7 C-6.525 7.99 -6.525 7.99 -4 9 C-4 7.02 -4 5.04 -4 3 C-3.01 3 -2.02 3 -1 3 C-0.67 2.01 -0.34 1.02 0 0 Z " fill="#ECF6CF" transform="translate(260,251)"/>
<path d="M0 0 C1.77503906 0.03480469 1.77503906 0.03480469 3.5859375 0.0703125 C5.36871094 0.09738281 5.36871094 0.09738281 7.1875 0.125 C8.10273437 0.14820313 9.01796875 0.17140625 9.9609375 0.1953125 C9.9609375 0.5253125 9.9609375 0.8553125 9.9609375 1.1953125 C4.0209375 1.6903125 4.0209375 1.6903125 -2.0390625 2.1953125 C-2.6990625 6.4853125 -3.3590625 10.7753125 -4.0390625 15.1953125 C-4.3690625 15.1953125 -4.6990625 15.1953125 -5.0390625 15.1953125 C-5.09292879 13.07058674 -5.13179321 10.94547598 -5.1640625 8.8203125 C-5.18726562 7.63695312 -5.21046875 6.45359375 -5.234375 5.234375 C-4.96496418 1.04234259 -4.19203241 0.26941082 0 0 Z " fill="#3B675E" transform="translate(99.0390625,192.8046875)"/>
<path d="M0 0 C0.33 0 0.66 0 1 0 C1.08120751 2.89640118 1.14059421 5.79050912 1.1875 8.6875 C1.21263672 9.50412109 1.23777344 10.32074219 1.26367188 11.16210938 C1.32127016 15.90436819 1.1980592 19.197949 -2 23 C-2.66 23 -3.32 23 -4 23 C-3.2884375 21.205625 -3.2884375 21.205625 -2.5625 19.375 C-0.42265099 13.06648288 -0.2726348 6.60904361 0 0 Z " fill="#E3EFC3" transform="translate(310,266)"/>
<path d="M0 0 C0.66 0 1.32 0 2 0 C5.38495108 5.44535609 5.67373505 10.67721029 6 17 C5.01 17.33 4.02 17.66 3 18 C2.92652344 16.67935547 2.92652344 16.67935547 2.8515625 15.33203125 C2.77679688 14.17058594 2.70203125 13.00914062 2.625 11.8125 C2.55539062 10.66394531 2.48578125 9.51539063 2.4140625 8.33203125 C2.02490426 5.20040883 1.3190149 2.84714191 0 0 Z " fill="#ECF6D3" transform="translate(279,198)"/>
<path d="M0 0 C4.875 3.75 4.875 3.75 6 6 C6.13415472 8.6723621 6.04318541 11.32250488 6 14 C4.35 13.67 2.7 13.34 1 13 C2.32 12.34 3.64 11.68 5 11 C5 9.68 5 8.36 5 7 C4.01 6.67 3.02 6.34 2 6 C0.8125 2.9375 0.8125 2.9375 0 0 Z " fill="#A3BF5A" transform="translate(250,246)"/>
<path d="M0 0 C2.23551759 3.35327639 2.17283528 3.90743657 1.625 7.6875 C1.51414063 8.49574219 1.40328125 9.30398437 1.2890625 10.13671875 C1.19367188 10.75160156 1.09828125 11.36648437 1 12 C0.01 12 -0.98 12 -2 12 C-2.05422947 10.5629191 -2.09289723 9.12524538 -2.125 7.6875 C-2.14820313 6.88699219 -2.17140625 6.08648437 -2.1953125 5.26171875 C-2 3 -2 3 0 0 Z " fill="#A4C456" transform="translate(250,213)"/>
<path d="M0 0 C0.99 0.33 1.98 0.66 3 1 C2.67 1.33 2.34 1.66 2 2 C1.24234583 7.04381205 1.46366376 10.86823892 4.5 15.0625 C5.325 16.031875 6.15 17.00125 7 18 C4.625 17.75 4.625 17.75 2 17 C-0.43303306 13.58060218 -0.20671005 10.33550239 -0.125 6.25 C-0.09792969 4.49429688 -0.09792969 4.49429688 -0.0703125 2.703125 C-0.04710937 1.81109375 -0.02390625 0.9190625 0 0 Z " fill="#F5FCDC" transform="translate(247,214)"/>
<path d="M0 0 C0.66 0 1.32 0 2 0 C0.74809374 4.48599743 -0.79385533 7.59347128 -4 11 C-4.66 11 -5.32 11 -6 11 C-6 10.01 -6 9.02 -6 8 C-5.34 8 -4.68 8 -4 8 C-4 7.01 -4 6.02 -4 5 C-2.5625 3.4375 -2.5625 3.4375 -1 2 C-0.67 1.34 -0.34 0.68 0 0 Z " fill="#9EC14E" transform="translate(279,218)"/>
<path d="M0 0 C1.32 0 2.64 0 4 0 C4 0.66 4 1.32 4 2 C5.98 1.34 7.96 0.68 10 0 C10.33 1.65 10.66 3.3 11 5 C8 6 8 6 5.95703125 5.0390625 C5.24933594 4.57242187 4.54164063 4.10578125 3.8125 3.625 C3.09707031 3.16351563 2.38164062 2.70203125 1.64453125 2.2265625 C1.10183594 1.82179688 0.55914062 1.41703125 0 1 C0 0.67 0 0.34 0 0 Z " fill="#A5C455" transform="translate(230,311)"/>
<path d="M0 0 C0.33 0.99 0.66 1.98 1 3 C0.00795408 4.33926199 -0.99426222 5.67098936 -2 7 C-3.12665928 9.63223984 -4.05313656 12.29467589 -5 15 C-5.66 15 -6.32 15 -7 15 C-6.14422708 9.18074417 -3.67286149 4.54735232 0 0 Z " fill="#A4C25A" transform="translate(213,252)"/>
<path d="M0 0 C0.66 0.33 1.32 0.66 2 1 C1.38348417 2.6490302 0.75652258 4.29415841 0.125 5.9375 C-0.22304688 6.85402344 -0.57109375 7.77054687 -0.9296875 8.71484375 C-2 11 -2 11 -4 12 C-4.08886184 8.80097361 -3.91058531 6.07322544 -3 3 C-2.01 3 -1.02 3 0 3 C0 2.01 0 1.02 0 0 Z " fill="#9EBF50" transform="translate(307,281)"/>
<path d="M0 0 C0 0.66 0 1.32 0 2 C0.66 2.33 1.32 2.66 2 3 C-3.94 2.67 -9.88 2.34 -16 2 C-16 1.67 -16 1.34 -16 1 C-10.65097076 0.40801257 -5.39115154 -0.14187241 0 0 Z " fill="#E7F5C8" transform="translate(264,187)"/>
<path d="M0 0 C0.33 0 0.66 0 1 0 C1.06058594 0.95261719 1.12117187 1.90523438 1.18359375 2.88671875 C1.26738281 4.14097656 1.35117188 5.39523437 1.4375 6.6875 C1.51871094 7.92886719 1.59992188 9.17023438 1.68359375 10.44921875 C1.94491317 13.38180337 2.34798379 16.13441617 3 19 C2.01 18.67 1.02 18.34 0 18 C0 12.06 0 6.12 0 0 Z " fill="#E4F1C4" transform="translate(205,266)"/>
<path d="M0 0 C0.33 0.66 0.66 1.32 1 2 C-1.4 8.4 -1.4 8.4 -4 11 C-4.99 10.67 -5.98 10.34 -7 10 C-6.21625 9.0925 -5.4325 8.185 -4.625 7.25 C-2.69947504 4.94809764 -1.17794259 2.78422793 0 0 Z " fill="#E7F5D0" transform="translate(309,236)"/>
<path d="M0 0 C-0.99 1.485 -0.99 1.485 -2 3 C-5 3.3125 -5 3.3125 -8 3 C-8.66 2.34 -9.32 1.68 -10 1 C-6.42181037 -1.33958553 -4.07775191 -0.9267618 0 0 Z " fill="#A8C45C" transform="translate(303,225)"/>
<path d="M0 0 C0 3 0 3 -2 6 C-4.3828125 6.51171875 -4.3828125 6.51171875 -7.125 6.6875 C-8.03507812 6.75324219 -8.94515625 6.81898438 -9.8828125 6.88671875 C-10.93082031 6.94279297 -10.93082031 6.94279297 -12 7 C-12 6.67 -12 6.34 -12 6 C-10.948125 5.7525 -9.89625 5.505 -8.8125 5.25 C-5.1866459 4.23299214 -2.80089228 2.54626571 0 0 Z " fill="#A1C055" transform="translate(268,310)"/>
<path d="M0 0 C1.125 3.75 1.125 3.75 0 6 C-2.4375 7.6875 -2.4375 7.6875 -5 9 C-5.66 8.67 -6.32 8.34 -7 8 C-4.79020692 5.18060883 -2.59937954 2.46941056 0 0 Z " fill="#2A6057" transform="translate(395,233)"/>
<path d="M0 0 C1.258125 -0.04125 2.51625 -0.0825 3.8125 -0.125 C4.52019531 -0.14820313 5.22789062 -0.17140625 5.95703125 -0.1953125 C8 0 8 0 11 2 C11 2.66 11 3.32 11 4 C9.948125 3.67 8.89625 3.34 7.8125 3 C4.61126643 2.16033218 2.2588992 1.80249096 -1 2 C-0.67 1.34 -0.34 0.68 0 0 Z " fill="#A5BE56" transform="translate(252,211)"/>
<path d="M0 0 C0.99 0.33 1.98 0.66 3 1 C2.34 1 1.68 1 1 1 C1 1.99 1 2.98 1 4 C1.99 4.33 2.98 4.66 4 5 C4 5.33 4 5.66 4 6 C2.35 6 0.7 6 -1 6 C-1.33 4.35 -1.66 2.7 -2 1 C-1.34 0.67 -0.68 0.34 0 0 Z " fill="#AAC75E" transform="translate(297,247)"/>
<path d="M0 0 C-0.99 1.485 -0.99 1.485 -2 3 C-5.63 2.67 -9.26 2.34 -13 2 C-13 1.67 -13 1.34 -13 1 C-11.20994059 0.63779734 -9.41787943 0.28547531 -7.625 -0.0625 C-6.12839844 -0.35833984 -6.12839844 -0.35833984 -4.6015625 -0.66015625 C-2 -1 -2 -1 0 0 Z " fill="#EEF9D5" transform="translate(271,232)"/>
<path d="M0 0 C1.21236328 0.04060547 1.21236328 0.04060547 2.44921875 0.08203125 C3.06410156 0.11683594 3.67898438 0.15164062 4.3125 0.1875 C1.27724514 2.21100324 0.11823798 2.50874018 -3.375 2.8125 C-4.18324219 2.88726562 -4.99148438 2.96203125 -5.82421875 3.0390625 C-6.43910156 3.08804688 -7.05398438 3.13703125 -7.6875 3.1875 C-5.26849268 0.20484049 -3.789448 -0.16475861 0 0 Z " fill="#EFFAD9" transform="translate(288.6875,236.8125)"/>
<path d="M0 0 C-3.3 1.32 -6.6 2.64 -10 4 C-10.66 3.34 -11.32 2.68 -12 2 C-10.75579353 1.4654744 -9.50429064 0.94791389 -8.25 0.4375 C-7.55390625 0.14746094 -6.8578125 -0.14257812 -6.140625 -0.44140625 C-4 -1 -4 -1 0 0 Z " fill="#A8C464" transform="translate(244,191)"/>
<path d="M0 0 C4.95 0.33 9.9 0.66 15 1 C14.67 1.99 14.34 2.98 14 4 C13.34 3.67 12.68 3.34 12 3 C9.9625237 2.77141886 7.91959697 2.58975722 5.875 2.4375 C4.23144531 2.31181641 4.23144531 2.31181641 2.5546875 2.18359375 C1.71164063 2.12300781 0.86859375 2.06242187 0 2 C0 1.34 0 0.68 0 0 Z " fill="#E5F5F1" transform="translate(95,316)"/>
<path d="M0 0 C0.66 0.99 1.32 1.98 2 3 C0.68 4.32 -0.64 5.64 -2 7 C-2.99 6.34 -3.98 5.68 -5 5 C-3.35 3.35 -1.7 1.7 0 0 Z " fill="#A4C253" transform="translate(274,304)"/>
<path d="M0 0 C0.66 0 1.32 0 2 0 C2.33 1.32 2.66 2.64 3 4 C4.32 4.33 5.64 4.66 7 5 C6.67 5.66 6.34 6.32 6 7 C3.36 5.35 0.72 3.7 -2 2 C-1.34 1.34 -0.68 0.68 0 0 Z " fill="#A5C255" transform="translate(229,237)"/>
<path d="M0 0 C1.33597652 0.80814651 2.668725 1.62163181 4 2.4375 C5.11375 3.11619141 5.11375 3.11619141 6.25 3.80859375 C6.8275 4.20175781 7.405 4.59492188 8 5 C8 5.33 8 5.66 8 6 C6.02 6 4.04 6 2 6 C1.34 4.02 0.68 2.04 0 0 Z " fill="#A1BF58" transform="translate(248,310)"/>
<path d="M0 0 C0.66 0 1.32 0 2 0 C5.10096154 5.45769231 5.10096154 5.45769231 4.58984375 8.203125 C4.39519531 8.79609375 4.20054687 9.3890625 4 10 C3.32845067 8.71086513 2.66291141 7.41859796 2 6.125 C1.62875 5.40570313 1.2575 4.68640625 0.875 3.9453125 C0 2 0 2 0 0 Z " fill="#A5BF56" transform="translate(208,283)"/>
<path d="M0 0 C0.66 0.33 1.32 0.66 2 1 C2.3125 3.3125 2.3125 3.3125 2 6 C-0.375 7.875 -0.375 7.875 -3 9 C-3.66 8.67 -4.32 8.34 -5 8 C-4.01 7.67 -3.02 7.34 -2 7 C-0.77030122 3.48809191 -0.77030122 3.48809191 0 0 Z " fill="#A5C250" transform="translate(306,226)"/>
<path d="M0 0 C2.0625 0.4375 2.0625 0.4375 4 1 C0.57905758 3.28062828 -0.68187222 3.21925007 -4.6875 3.125 C-6.17830078 3.09792969 -6.17830078 3.09792969 -7.69921875 3.0703125 C-8.45847656 3.04710937 -9.21773438 3.02390625 -10 3 C-10 2.67 -10 2.34 -10 2 C-9.04287109 1.90912109 -9.04287109 1.90912109 -8.06640625 1.81640625 C-6.82697266 1.69072266 -6.82697266 1.69072266 -5.5625 1.5625 C-4.73878906 1.48128906 -3.91507812 1.40007812 -3.06640625 1.31640625 C-1.01337975 1.21069185 -1.01337975 1.21069185 0 0 Z " fill="#A1BF4D" transform="translate(268,229)"/>
<path d="M0 0 C3.35111834 2.23407889 4.81553956 3.26215824 5.8125 7.25 C5.874375 8.1575 5.93625 9.065 6 10 C3.38275905 7.63202009 1.67138271 5.10399646 0 2 C0 1.34 0 0.68 0 0 Z " fill="#EEFBD2" transform="translate(265,197)"/>
<path d="M0 0 C1.2077558 3.62326739 0.54311128 4.64146369 -1 8 C-1.99 7.67 -2.98 7.34 -4 7 C-2.79618552 4.50638429 -1.54571278 2.31856917 0 0 Z " fill="#A8C55B" transform="translate(284,292)"/>
<path d="M0 0 C1.73662334 3.22515763 2.8905928 6.51329166 4 10 C3.34 10 2.68 10 2 10 C2 9.34 2 8.68 2 8 C1.34 8 0.68 8 0 8 C0 5.36 0 2.72 0 0 Z " fill="#A7C261" transform="translate(235,224)"/>
<path d="M0 0 C0.33 0.66 0.66 1.32 1 2 C-0.32 3.65 -1.64 5.3 -3 7 C-3.66 6.67 -4.32 6.34 -5 6 C-2.25 1.125 -2.25 1.125 0 0 Z " fill="#EDF9D4" transform="translate(243,199)"/>
</svg>
